# xmcd CD database file
#
# Track frame offsets:
#	150
#	22877
#	39359
#	58282
#	74598
#	88817
#	106678
#	121404
#	138290
#	153874
#	168751
#	184689
#	201812
#	220896
#	234324
#	251305
#
# Disc length: 3591 seconds
#
# Revision: 2
# Processed by: cddbd v1.4b41PL1 Copyright (c) Steve Scherf et al.
# Submitted via: Feurio! 1.52 - http://www.feurio.com
#
DISCID=d00e0510
DTITLE=www.dancenet.net 5 - CD 1
DYEAR=1900
DGENRE=
TTITLE0=Darude - Out Of Control
TTITLE1=Waldo's People feat. Herbie - Bounce
TTITLE2=Melanie C - I Turn To You
TTITLE3=ATC - Around The World
TTITLE4=Vengaboys - Uncle John From Jamaica
TTITLE5=Kim Lukas - Let It Be The Night
TTITLE6=Alice Deejay - Will I Ever
TTITLE7=Dj Dean - Love Come Home
TTITLE8=Snap - Gimme a Thrill
TTITLE9=Billie Piper - Day and Night
TTITLE10=7th District Inc. feat. Janine Cross - What A Night
TTITLE11=Tom Novy - Welcome To The Race
TTITLE12=Soundfreak feat. Ville Pusa - Ensam igen
TTITLE13=Hypertraxx - The Darkside
TTITLE14=Dj Alligator Project - Lollipop
TTITLE15=Alkalyne - Move
EXTD=
EXTT0=
EXTT1=
EXTT2=
EXTT3=
EXTT4=
EXTT5=
EXTT6=
EXTT7=
EXTT8=
EXTT9=
EXTT10=
EXTT11=
EXTT12=
EXTT13=
EXTT14=
EXTT15=
PLAYORDER=
